<?xml version="1.0" encoding="UTF-8" standalone="no"?>
<!-- Created with Inkscape (http://www.inkscape.org/) -->

<svg
   width="65.304214mm"
   height="92.814072mm"
   viewBox="0 0 65.304214 92.814072"
   version="1.1"
   id="svg1"
   xml:space="preserve"
   inkscape:version="1.4 (86a8ad7, 2024-10-11)"
   sodipodi:docname="recyclebin.svg"
   xmlns:inkscape="http://www.inkscape.org/namespaces/inkscape"
   xmlns:sodipodi="http://sodipodi.sourceforge.net/DTD/sodipodi-0.dtd"
   xmlns="http://www.w3.org/2000/svg"
   xmlns:svg="http://www.w3.org/2000/svg"><sodipodi:namedview
     id="namedview1"
     pagecolor="#ffffff"
     bordercolor="#000000"
     borderopacity="0.25"
     inkscape:showpageshadow="2"
     inkscape:pageopacity="0.0"
     inkscape:pagecheckerboard="0"
     inkscape:deskcolor="#d1d1d1"
     inkscape:document-units="mm"
     inkscape:zoom="5.6568542"
     inkscape:cx="369.02135"
     inkscape:cy="475.97125"
     inkscape:window-width="3440"
     inkscape:window-height="1369"
     inkscape:window-x="1432"
     inkscape:window-y="-8"
     inkscape:window-maximized="1"
     inkscape:current-layer="layer1"><inkscape:page
       x="0"
       y="0"
       width="65.304214"
       height="92.814072"
       id="page2"
       margin="0"
       bleed="0" /></sodipodi:namedview><defs
     id="defs1" /><g
     inkscape:label="Layer 1"
     inkscape:groupmode="layer"
     id="layer1"
     transform="translate(117.80979,2.8276695)"><rect
       style="fill:none;fill-opacity:1;stroke:none;stroke-width:0.326157;stroke-linecap:round;stroke-dasharray:none;stroke-dashoffset:0.755906;stroke-opacity:1"
       id="rect11-3-3"
       width="65.304214"
       height="92.814072"
       x="-117.80979"
       y="-2.8276694"
       ry="0"
       inkscape:export-filename="..\images\bin_open.svg"
       inkscape:export-xdpi="96"
       inkscape:export-ydpi="96" /><path
       id="rect5-2-5"
       style="fill:#232323;fill-opacity:1;stroke:none;stroke-width:0.352778;stroke-dasharray:none;stroke-dashoffset:0.755906;stroke-opacity:1"
       d="m -112.20203,22.885582 5.64771,65.359839 c 0,0.96446 0.77653,1.74098 1.74098,1.74098 h 39.31182 c 0.96446,0 1.65746,-0.7801 1.74046,-1.74098 l 5.64772,-65.359839 z m 27.04537,9.304858 a 1.5,1.5 0 0 1 1.49965,1.49965 v 45.894871 a 1.5,1.5 0 0 1 -1.49965,1.49965 1.5,1.5 0 0 1 -1.50016,-1.49965 V 33.69009 a 1.5,1.5 0 0 1 1.50016,-1.49965 z m -14.84767,0.0016 a 1.5,1.5 0 0 1 1.58957,1.40663 l 2.80293,45.810641 a 1.5,1.5 0 0 1 -1.40612,1.5875 1.5,1.5 0 0 1 -1.59008,-1.40611 l -2.80086,-45.808631 a 1.5,1.5 0 0 1 1.40456,-1.59008 z m 29.69328,0 a 1.5,1.5 0 0 1 1.40405,1.59008 l -2.80035,45.808581 a 1.5,1.5 0 0 1 -1.59008,1.40611 1.5,1.5 0 0 1 -1.40405,-1.5875 l 2.80035,-45.810641 a 1.5,1.5 0 0 1 1.59008,-1.40663 z" /><path
       id="rect1-3-4"
       style="fill:#232323;fill-opacity:1;stroke:none;stroke-width:0.352778;stroke-linecap:round;stroke-dasharray:none;stroke-dashoffset:0.755906;stroke-opacity:1"
       d="m -98.31759,1.458902 c -1.90219,0.509694 -2.92559,2.816286 -2.29455,5.171368 l 0.86027,3.210571 -16.05884,4.302956 c -1.44248,0.38651 -2.29235,1.859257 -1.90584,3.30173 l 1.57809,5.889542 59.81637,-16.027747 -1.57809,-5.889541 c -0.38651,-1.442474 -1.8594,-2.292843 -3.30187,-1.906331 l -16.05886,4.302956 -0.86026,-3.210571 c -0.63104,-2.355082 -2.67014,-3.841081 -4.57233,-3.331393 z m 1.02402,2.683601 15.05455,-4.033856 c 0.58301,-0.156215 1.17844,0.187135 1.33466,0.770147 l 0.97797,3.649829 -17.15948,4.597868 -0.97797,-3.649829 c -0.15622,-0.583012 0.18726,-1.177945 0.77027,-1.334159 z"
       sodipodi:nodetypes="sscssccsscssssssccss" /></g></svg>
