<?xml version="1.0" encoding="UTF-8" standalone="no"?>
<!-- Created with Inkscape (http://www.inkscape.org/) -->

<svg
   width="65.304214mm"
   height="92.814079mm"
   viewBox="0 0 65.304214 92.814079"
   version="1.1"
   id="svg1"
   xml:space="preserve"
   inkscape:version="1.4 (86a8ad7, 2024-10-11)"
   sodipodi:docname="recyclebin.svg"
   xmlns:inkscape="http://www.inkscape.org/namespaces/inkscape"
   xmlns:sodipodi="http://sodipodi.sourceforge.net/DTD/sodipodi-0.dtd"
   xmlns="http://www.w3.org/2000/svg"
   xmlns:svg="http://www.w3.org/2000/svg"><sodipodi:namedview
     id="namedview1"
     pagecolor="#ffffff"
     bordercolor="#000000"
     borderopacity="0.25"
     inkscape:showpageshadow="2"
     inkscape:pageopacity="0.0"
     inkscape:pagecheckerboard="0"
     inkscape:deskcolor="#d1d1d1"
     inkscape:document-units="mm"
     inkscape:zoom="5.6568542"
     inkscape:cx="369.02135"
     inkscape:cy="475.97125"
     inkscape:window-width="3440"
     inkscape:window-height="1369"
     inkscape:window-x="1432"
     inkscape:window-y="-8"
     inkscape:window-maximized="1"
     inkscape:current-layer="layer1"><inkscape:page
       x="0"
       y="0"
       width="65.304214"
       height="92.814079"
       id="page2"
       margin="0"
       bleed="0" /></sodipodi:namedview><defs
     id="defs1" /><g
     inkscape:label="Layer 1"
     inkscape:groupmode="layer"
     id="layer1"
     transform="translate(208.6551,7.3863667)"><rect
       style="fill:none;fill-opacity:1;stroke:none;stroke-width:0.326157;stroke-linecap:round;stroke-dasharray:none;stroke-dashoffset:0.755906;stroke-opacity:1"
       id="rect11-3-3-0"
       width="65.304214"
       height="92.814072"
       x="-208.65509"
       y="-7.3863668"
       ry="0"
       inkscape:export-filename="..\images\bin_closed.svg"
       inkscape:export-xdpi="96"
       inkscape:export-ydpi="96" /><path
       id="rect5-27"
       style="fill:#232323;fill-opacity:1;stroke:none;stroke-width:0.352778;stroke-dasharray:none;stroke-dashoffset:0.755906;stroke-opacity:1"
       d="m -203.04759,18.326878 5.64771,65.359843 c 0,0.96446 0.77653,1.74098 1.74098,1.74098 h 39.31182 c 0.96446,0 1.65746,-0.7801 1.74046,-1.74098 l 5.64772,-65.359843 z m 27.04538,9.304858 a 1.5,1.5 0 0 1 1.49965,1.49965 v 45.894875 a 1.5,1.5 0 0 1 -1.49965,1.49965 1.5,1.5 0 0 1 -1.50017,-1.49965 V 29.131386 a 1.5,1.5 0 0 1 1.50017,-1.49965 z m -14.84768,0.0016 a 1.5,1.5 0 0 1 1.58957,1.40663 l 2.80293,45.810645 a 1.5,1.5 0 0 1 -1.40612,1.5875 1.5,1.5 0 0 1 -1.59008,-1.40611 l -2.80086,-45.808635 a 1.5,1.5 0 0 1 1.40456,-1.59008 z m 29.69328,0 a 1.5,1.5 0 0 1 1.40405,1.59008 l -2.80035,45.808585 a 1.5,1.5 0 0 1 -1.59008,1.40611 1.5,1.5 0 0 1 -1.40405,-1.5875 l 2.80035,-45.810645 a 1.5,1.5 0 0 1 1.59008,-1.40663 z" /><path
       id="rect1-9"
       style="fill:#232323;fill-opacity:1;stroke:none;stroke-width:0.352778;stroke-linecap:round;stroke-dasharray:none;stroke-dashoffset:0.755906;stroke-opacity:1"
       d="m -184.09061,1.223854 c -1.9693,0 -3.55482,1.963121 -3.55482,4.401282 v 3.323828 h -16.62534 c -1.49336,0 -2.69545,1.202601 -2.69545,2.69596 v 6.097302 h 61.92646 v -6.097302 c 0,-1.493359 -1.2026,-2.69596 -2.69596,-2.69596 h -16.62535 V 5.625136 c 0,-2.438161 -1.585,-4.401282 -3.5543,-4.401282 z m 0.29456,2.85719 h 15.58561 c 0.60358,0 1.08985,0.48576 1.08985,1.089339 v 3.778581 h -17.7648 V 5.170383 c 0,-0.603579 0.48576,-1.089339 1.08934,-1.089339 z"
       sodipodi:nodetypes="sscssccsscssssssccss" /></g></svg>
