<?xml version="1.0" encoding="UTF-8" standalone="no"?>
<!-- Created with Inkscape (http://www.inkscape.org/) -->

<svg
   width="51.5937mm"
   height="61.815819mm"
   viewBox="0 0 51.5937 61.815819"
   version="1.1"
   id="svg1"
   xml:space="preserve"
   inkscape:version="1.4 (86a8ad7, 2024-10-11)"
   sodipodi:docname="file.svg"
   xmlns:inkscape="http://www.inkscape.org/namespaces/inkscape"
   xmlns:sodipodi="http://sodipodi.sourceforge.net/DTD/sodipodi-0.dtd"
   xmlns="http://www.w3.org/2000/svg"
   xmlns:svg="http://www.w3.org/2000/svg"><sodipodi:namedview
     id="namedview1"
     pagecolor="#ffffff"
     bordercolor="#000000"
     borderopacity="0.25"
     inkscape:showpageshadow="2"
     inkscape:pageopacity="0.0"
     inkscape:pagecheckerboard="0"
     inkscape:deskcolor="#d1d1d1"
     inkscape:document-units="mm"
     inkscape:zoom="1.4142136"
     inkscape:cx="16.970563"
     inkscape:cy="387.84807"
     inkscape:window-width="3440"
     inkscape:window-height="1369"
     inkscape:window-x="1432"
     inkscape:window-y="-8"
     inkscape:window-maximized="1"
     inkscape:current-layer="layer1"><inkscape:page
       x="0"
       y="0"
       width="51.5937"
       height="61.815819"
       id="page2"
       margin="0"
       bleed="0" /></sodipodi:namedview><defs
     id="defs1" /><g
     inkscape:label="Layer 1"
     inkscape:groupmode="layer"
     id="layer1"
     transform="translate(-46.92455,-16.799258)"><g
       id="g1"
       inkscape:export-filename="..\images\file.svg"
       inkscape:export-xdpi="96"
       inkscape:export-ydpi="96"><path
         id="path13"
         style="fill:none;stroke:#101010;stroke-width:3.5;stroke-linecap:round;stroke-dashoffset:0.755906"
         d="m 51.98339,18.549256 c -1.83304,0 -3.30884,1.475802 -3.30884,3.308842 v 5.41259 46.285547 c 0,1.83303 1.4758,3.308837 3.30884,3.308837 h 41.47602 c 1.83303,0 3.30884,-1.475807 3.30884,-3.308837 V 32.949928 32.648654 C 96.73535,32.361851 96.61451,32.083045 96.3936,31.862139 L 83.45537,18.92391 c -0.2209,-0.220906 -0.49971,-0.341789 -0.78651,-0.374654 h -0.30128 -24.9716 z"
         sodipodi:nodetypes="sscsssscccccccs"
         inkscape:export-filename="..\images\file.png"
         inkscape:export-xdpi="96"
         inkscape:export-ydpi="96" /><path
         d="m 82.9231,18.620569 c -0.32714,0.13791 -0.55552,0.461281 -0.55552,0.839742 v 12.578561 c 0,0.504615 0.40644,0.911055 0.91106,0.911055 H 95.8572 c 0.37846,0 0.70183,-0.228381 0.83974,-0.555522 0,0 0,-5.16e-4 0,-5.16e-4 -0.0609,-0.192792 -0.14975,-0.378164 -0.30334,-0.531751 L 83.45537,18.92391 c -0.15359,-0.153587 -0.33896,-0.242419 -0.53175,-0.303341 z"
         style="fill:none;stroke:#101010;stroke-width:3.49999;stroke-dashoffset:2.83465"
         id="path17" /><path
         style="fill:none;stroke:#101010;stroke-width:3;stroke-linecap:round;stroke-dasharray:none;stroke-dashoffset:2.83465"
         d="M 61.400225,45.277198 H 83.199034"
         id="path18" /><path
         style="fill:none;stroke:#101010;stroke-width:3;stroke-linecap:round;stroke-dasharray:none;stroke-dashoffset:2.83465"
         d="M 61.400225,54.760198 H 83.199034"
         id="path18-8" /><path
         style="fill:none;stroke:#101010;stroke-width:3;stroke-linecap:round;stroke-dasharray:none;stroke-dashoffset:2.83465"
         d="M 61.400225,64.243198 H 83.199034"
         id="path18-7" /></g></g></svg>
