<?xml version="1.0" encoding="UTF-8" standalone="no"?>
<!-- Created with Inkscape (http://www.inkscape.org/) -->

<svg
   width="51.5937mm"
   height="61.815819mm"
   viewBox="0 0 51.5937 61.815819"
   version="1.1"
   id="svg1"
   xml:space="preserve"
   inkscape:version="1.4 (86a8ad7, 2024-10-11)"
   sodipodi:docname="file.svg"
   xmlns:inkscape="http://www.inkscape.org/namespaces/inkscape"
   xmlns:sodipodi="http://sodipodi.sourceforge.net/DTD/sodipodi-0.dtd"
   xmlns="http://www.w3.org/2000/svg"
   xmlns:svg="http://www.w3.org/2000/svg"><sodipodi:namedview
     id="namedview1"
     pagecolor="#ffffff"
     bordercolor="#000000"
     borderopacity="0.25"
     inkscape:showpageshadow="2"
     inkscape:pageopacity="0.0"
     inkscape:pagecheckerboard="0"
     inkscape:deskcolor="#d1d1d1"
     inkscape:document-units="mm"
     inkscape:zoom="1.4142136"
     inkscape:cx="16.970563"
     inkscape:cy="387.84807"
     inkscape:window-width="3440"
     inkscape:window-height="1369"
     inkscape:window-x="1432"
     inkscape:window-y="-8"
     inkscape:window-maximized="1"
     inkscape:current-layer="layer1"><inkscape:page
       x="0"
       y="0"
       width="51.5937"
       height="61.815819"
       id="page2"
       margin="0"
       bleed="0" /></sodipodi:namedview><defs
     id="defs1" /><g
     inkscape:label="Layer 1"
     inkscape:groupmode="layer"
     id="layer1"
     transform="translate(-44.450002,-93.927088)"><g
       id="g2"
       inkscape:export-filename="..\images\file_hover.svg"
       inkscape:export-xdpi="96"
       inkscape:export-ydpi="96"><path
         id="path13-6"
         style="fill:#f0e0d7;fill-opacity:1;stroke:#101010;stroke-width:3.5;stroke-linecap:round;stroke-dashoffset:0.755906"
         d="m 49.50884,95.677083 c -1.83304,0 -3.30884,1.475802 -3.30884,3.308842 v 5.412595 46.28554 c 0,1.83303 1.4758,3.30884 3.30884,3.30884 h 41.47602 c 1.83303,0 3.30884,-1.47581 3.30884,-3.30884 v -40.60631 -0.30127 c -0.0329,-0.2868 -0.15374,-0.56561 -0.37465,-0.78651 L 80.98082,96.051737 c -0.2209,-0.220906 -0.49971,-0.341789 -0.78651,-0.374654 h -0.30128 -24.9716 z"
         sodipodi:nodetypes="sscsssscccccccs"
         inkscape:export-filename="..\images\file_hover.png"
         inkscape:export-xdpi="96"
         inkscape:export-ydpi="96" /><path
         d="m 80.44855,95.748396 c -0.32714,0.13791 -0.55552,0.461281 -0.55552,0.839742 V 109.1667 c 0,0.50461 0.40644,0.91105 0.91106,0.91105 h 12.57856 c 0.37846,0 0.70183,-0.22838 0.83974,-0.55552 0,0 0,-5.1e-4 0,-5.1e-4 -0.0609,-0.1928 -0.14975,-0.37817 -0.30334,-0.53176 L 80.98082,96.051737 C 80.82723,95.89815 80.64186,95.809318 80.44907,95.748396 Z"
         style="fill:#e4b9a3;fill-opacity:1;stroke:#101010;stroke-width:3.49999;stroke-dashoffset:2.83465"
         id="path17-0" /><path
         style="fill:none;stroke:#101010;stroke-width:3;stroke-linecap:round;stroke-dasharray:none;stroke-dashoffset:2.83465"
         d="M 59.769216,122.40502 H 81.568025"
         id="path18-2" /><path
         style="fill:none;stroke:#101010;stroke-width:3;stroke-linecap:round;stroke-dasharray:none;stroke-dashoffset:2.83465"
         d="M 59.769216,131.88802 H 81.568025"
         id="path18-8-4" /><path
         style="fill:none;stroke:#101010;stroke-width:3;stroke-linecap:round;stroke-dasharray:none;stroke-dashoffset:2.83465"
         d="M 59.769216,141.37102 H 81.568025"
         id="path18-7-8" /></g></g></svg>
