<?xml version="1.0" encoding="UTF-8" standalone="no"?>
<!-- Created with Inkscape (http://www.inkscape.org/) -->

<svg
   width="63.499939mm"
   height="54.203346mm"
   viewBox="0 0 63.499939 54.203346"
   version="1.1"
   id="svg1"
   xml:space="preserve"
   inkscape:version="1.4 (86a8ad7, 2024-10-11)"
   sodipodi:docname="save.svg"
   xmlns:inkscape="http://www.inkscape.org/namespaces/inkscape"
   xmlns:sodipodi="http://sodipodi.sourceforge.net/DTD/sodipodi-0.dtd"
   xmlns="http://www.w3.org/2000/svg"
   xmlns:svg="http://www.w3.org/2000/svg"><sodipodi:namedview
     id="namedview1"
     pagecolor="#ffffff"
     bordercolor="#000000"
     borderopacity="0.25"
     inkscape:showpageshadow="2"
     inkscape:pageopacity="0.0"
     inkscape:pagecheckerboard="0"
     inkscape:deskcolor="#d1d1d1"
     inkscape:document-units="mm"
     inkscape:zoom="2.8284272"
     inkscape:cx="-864.79157"
     inkscape:cy="-56.038211"
     inkscape:window-width="3440"
     inkscape:window-height="1369"
     inkscape:window-x="1432"
     inkscape:window-y="-8"
     inkscape:window-maximized="1"
     inkscape:current-layer="layer1"><inkscape:page
       x="0"
       y="0"
       width="63.499939"
       height="54.203346"
       id="page2"
       margin="0"
       bleed="0" /></sodipodi:namedview><defs
     id="defs1" /><g
     inkscape:label="Layer 1"
     inkscape:groupmode="layer"
     id="layer1"
     transform="translate(-60.522156,-107.6854)"><g
       id="g17"
       transform="translate(0,-103.71666)"><path
         id="rect13-2"
         style="fill:#f0d891;fill-opacity:1;stroke:#101010;stroke-width:3.5;stroke-dashoffset:0.755906;stroke-opacity:1"
         d="m 62.272159,222.25421 v 37.48331 c 0,2.2813 1.83658,4.11788 4.11788,4.11788 h 51.764201 c 2.28129,0 4.11786,-1.83658 4.11786,-4.11788 v -37.48331 c 0,-2.28131 -1.83657,-4.11788 -4.11786,-4.11788 H 92.959829 c 0,0 -1.25585,3.74076 -4.98425,3.74076 h -25.70342 v 31.5862"
         sodipodi:nodetypes="csssssscccc" /><path
         id="rect13-5-4"
         style="fill:#e6bf4a;fill-opacity:1;stroke:#101010;stroke-width:3.5;stroke-dashoffset:0.755906;stroke-opacity:1"
         d="m 62.272159,217.36988 c 0,-2.33666 1.88114,-4.21781 4.21781,-4.21781 h 6.55576 l 14.92985,-1e-5 4.98425,4.98427 c 0,0 -1.25585,3.74076 -4.98425,3.74076 h -25.70342 z"
         sodipodi:nodetypes="sscccccs" /></g></g></svg>
