<?xml version="1.0" encoding="UTF-8" standalone="no"?>
<!-- Created with Inkscape (http://www.inkscape.org/) -->

<svg
   width="63.499962mm"
   height="61.816166mm"
   viewBox="0 0 63.499962 61.816166"
   version="1.1"
   id="svg1"
   xml:space="preserve"
   inkscape:version="1.4 (86a8ad7, 2024-10-11)"
   sodipodi:docname="save.svg"
   xmlns:inkscape="http://www.inkscape.org/namespaces/inkscape"
   xmlns:sodipodi="http://sodipodi.sourceforge.net/DTD/sodipodi-0.dtd"
   xmlns="http://www.w3.org/2000/svg"
   xmlns:svg="http://www.w3.org/2000/svg"><sodipodi:namedview
     id="namedview1"
     pagecolor="#ffffff"
     bordercolor="#000000"
     borderopacity="0.25"
     inkscape:showpageshadow="2"
     inkscape:pageopacity="0.0"
     inkscape:pagecheckerboard="0"
     inkscape:deskcolor="#d1d1d1"
     inkscape:document-units="mm"
     inkscape:zoom="2.8284272"
     inkscape:cx="-864.79157"
     inkscape:cy="-56.038211"
     inkscape:window-width="3440"
     inkscape:window-height="1369"
     inkscape:window-x="1432"
     inkscape:window-y="-8"
     inkscape:window-maximized="1"
     inkscape:current-layer="layer1"><inkscape:page
       x="-5.0230734e-13"
       y="0"
       width="63.499966"
       height="61.816166"
       id="page2"
       margin="0"
       bleed="0" /></sodipodi:namedview><defs
     id="defs1" /><g
     inkscape:label="Layer 1"
     inkscape:groupmode="layer"
     id="layer1"
     transform="translate(-133.38934,-104.13625)"><path
       id="path10-6-6-6"
       style="fill:#989fc8;fill-opacity:1;stroke:#101010;stroke-width:3.5;stroke-linecap:round;stroke-dasharray:none;stroke-dashoffset:0.755906;stroke-opacity:1"
       d="m 138.44818,105.88624 c -1.83304,0 -3.30884,1.4758 -3.30884,3.30884 v 51.69848 c 0,1.83303 1.4758,3.30884 3.30884,3.30884 h 53.38228 c 1.83303,0 3.30884,-1.47581 3.30884,-3.30884 v -46.28589 c 0,-0.41616 -0.1597,-0.8325 -0.47853,-1.15135 l -7.09155,-7.09155 c -0.31885,-0.31884 -0.73525,-0.47853 -1.15135,-0.47853 z m 14.20291,0 h 28.34866 c 0.64485,0 1.16376,0.51942 1.16376,1.16427 v 12.96596 c 0,0.64485 -0.51891,1.16376 -1.16376,1.16376 h -28.34866 c -0.64485,0 -1.16375,-0.51891 -1.16375,-1.16376 v -12.96596 c 0,-0.64485 0.5189,-1.16427 1.16375,-1.16427 z m -6.54227,28.85432 h 37.74602 c 0.17906,0 0.3235,0.13805 0.3235,0.30954 v 29.1523 H 145.7936 l -0.008,-29.15229 c -5e-5,-0.17149 0.14407,-0.30238 0.32297,-0.30954 z"
       sodipodi:nodetypes="sssssssccssssssssssscssccssc" /></g></svg>
